<svg id="Group_5" data-name="Group 5" xmlns="http://www.w3.org/2000/svg" width="272" height="78.191" viewBox="0 0 272 78.191">
  <g id="Rectangle_2" data-name="Rectangle 2" transform="matrix(0.951, 0.309, -0.309, 0.951, 24.391, 0)" fill="#fff" stroke="#fff" stroke-width="1">
    <rect width="10.103" height="78.932" stroke="none"/>
    <rect x="0.5" y="0.5" width="9.103" height="77.932" fill="none"/>
  </g>
  <g id="Rectangle_3" data-name="Rectangle 3" transform="matrix(0.951, 0.309, -0.309, 0.951, 41.391, 0)" fill="#fff" stroke="#fff" stroke-width="1">
    <rect width="10.103" height="78.932" stroke="none"/>
    <rect x="0.5" y="0.5" width="9.103" height="77.932" fill="none"/>
  </g>
  <g id="Rectangle_4" data-name="Rectangle 4" transform="matrix(0.951, 0.309, -0.309, 0.951, 58.391, 0)" fill="#fff" stroke="#fff" stroke-width="1">
    <rect width="10.103" height="78.932" stroke="none"/>
    <rect x="0.5" y="0.5" width="9.103" height="77.932" fill="none"/>
  </g>
  <g id="Rectangle_5" data-name="Rectangle 5" transform="matrix(0.951, 0.309, -0.309, 0.951, 75.391, 0)" fill="#fff" stroke="#fff" stroke-width="1">
    <rect width="10.103" height="78.932" stroke="none"/>
    <rect x="0.5" y="0.5" width="9.103" height="77.932" fill="none"/>
  </g>
  <g id="Rectangle_6" data-name="Rectangle 6" transform="matrix(0.951, 0.309, -0.309, 0.951, 92.391, 0)" fill="#fff" stroke="#fff" stroke-width="1">
    <rect width="10.103" height="78.932" stroke="none"/>
    <rect x="0.5" y="0.5" width="9.103" height="77.932" fill="none"/>
  </g>
  <g id="Rectangle_7" data-name="Rectangle 7" transform="matrix(0.951, 0.309, -0.309, 0.951, 109.391, 0)" fill="#fff" stroke="#fff" stroke-width="1">
    <rect width="10.103" height="78.932" stroke="none"/>
    <rect x="0.5" y="0.5" width="9.103" height="77.932" fill="none"/>
  </g>
  <g id="Rectangle_8" data-name="Rectangle 8" transform="matrix(0.951, 0.309, -0.309, 0.951, 126.391, 0)" fill="#fff" stroke="#fff" stroke-width="1">
    <rect width="10.103" height="78.932" stroke="none"/>
    <rect x="0.5" y="0.5" width="9.103" height="77.932" fill="none"/>
  </g>
  <g id="Rectangle_9" data-name="Rectangle 9" transform="matrix(0.951, 0.309, -0.309, 0.951, 143.391, 0)" fill="#fff" stroke="#fff" stroke-width="1">
    <rect width="10.103" height="78.932" stroke="none"/>
    <rect x="0.5" y="0.5" width="9.103" height="77.932" fill="none"/>
  </g>
  <g id="Rectangle_10" data-name="Rectangle 10" transform="matrix(0.951, 0.309, -0.309, 0.951, 160.391, 0)" fill="#fff" stroke="#fff" stroke-width="1">
    <rect width="10.103" height="78.932" stroke="none"/>
    <rect x="0.5" y="0.5" width="9.103" height="77.932" fill="none"/>
  </g>
  <g id="Rectangle_11" data-name="Rectangle 11" transform="matrix(0.951, 0.309, -0.309, 0.951, 177.391, 0)" fill="#fff" stroke="#fff" stroke-width="1">
    <rect width="10.103" height="78.932" stroke="none"/>
    <rect x="0.5" y="0.5" width="9.103" height="77.932" fill="none"/>
  </g>
  <g id="Rectangle_12" data-name="Rectangle 12" transform="matrix(0.951, 0.309, -0.309, 0.951, 194.391, 0)" fill="#fff" stroke="#fff" stroke-width="1">
    <rect width="10.103" height="78.932" stroke="none"/>
    <rect x="0.5" y="0.5" width="9.103" height="77.932" fill="none"/>
  </g>
  <g id="Rectangle_13" data-name="Rectangle 13" transform="matrix(0.951, 0.309, -0.309, 0.951, 211.391, 0)" fill="#fff" stroke="#fff" stroke-width="1">
    <rect width="10.103" height="78.932" stroke="none"/>
    <rect x="0.5" y="0.5" width="9.103" height="77.932" fill="none"/>
  </g>
  <g id="Rectangle_14" data-name="Rectangle 14" transform="matrix(0.951, 0.309, -0.309, 0.951, 228.391, 0)" fill="#fff" stroke="#fff" stroke-width="1">
    <rect width="10.103" height="78.932" stroke="none"/>
    <rect x="0.5" y="0.5" width="9.103" height="77.932" fill="none"/>
  </g>
  <g id="Rectangle_15" data-name="Rectangle 15" transform="matrix(0.951, 0.309, -0.309, 0.951, 245.391, 0)" fill="#fff" stroke="#fff" stroke-width="1">
    <rect width="10.103" height="78.932" stroke="none"/>
    <rect x="0.5" y="0.5" width="9.103" height="77.932" fill="none"/>
  </g>
  <g id="Rectangle_16" data-name="Rectangle 16" transform="matrix(0.951, 0.309, -0.309, 0.951, 262.391, 0)" fill="#fff" stroke="#fff" stroke-width="1">
    <rect width="10.103" height="78.932" stroke="none"/>
    <rect x="0.5" y="0.5" width="9.103" height="77.932" fill="none"/>
  </g>
</svg>
